<mxfile host="app.diagrams.net" agent="Mozilla/5.0 (Windows NT 10.0; Win64; x64) AppleWebKit/537.36 (KHTML, like Gecko) Chrome/128.0.0.0 Safari/537.36" version="24.7.16">
  <diagram name="Program Diagram" id="DfJwxook1Wd-qN8fIL8Z">
    <mxGraphModel dx="1834" dy="1188" grid="0" gridSize="10" guides="1" tooltips="1" connect="1" arrows="1" fold="1" page="0" pageScale="1" pageWidth="827" pageHeight="1169" math="0" shadow="0">
      <root>
        <mxCell id="0" />
        <mxCell id="1" parent="0" />
        <mxCell id="HpqlJmidfFPWV4sKqH12-1" value="Start" style="rounded=1;whiteSpace=wrap;html=1;" vertex="1" parent="1">
          <mxGeometry x="-20" y="-51" width="60" height="30" as="geometry" />
        </mxCell>
        <mxCell id="HpqlJmidfFPWV4sKqH12-2" value="Введення N" style="rounded=1;whiteSpace=wrap;html=1;" vertex="1" parent="1">
          <mxGeometry x="64" y="-51" width="80" height="30" as="geometry" />
        </mxCell>
        <mxCell id="HpqlJmidfFPWV4sKqH12-3" value="Рахування цифр" style="rounded=1;whiteSpace=wrap;html=1;" vertex="1" parent="1">
          <mxGeometry x="166" y="-10" width="80" height="30" as="geometry" />
        </mxCell>
        <mxCell id="HpqlJmidfFPWV4sKqH12-4" value="Витягнути першу і останню цифри" style="rounded=1;whiteSpace=wrap;html=1;" vertex="1" parent="1">
          <mxGeometry x="277" y="56" width="120" height="30" as="geometry" />
        </mxCell>
        <mxCell id="HpqlJmidfFPWV4sKqH12-5" value="Перемістити цифри" style="rounded=1;whiteSpace=wrap;html=1;" vertex="1" parent="1">
          <mxGeometry x="421" y="113" width="80" height="30" as="geometry" />
        </mxCell>
        <mxCell id="HpqlJmidfFPWV4sKqH12-15" style="edgeStyle=none;curved=1;rounded=0;orthogonalLoop=1;jettySize=auto;html=1;entryX=0;entryY=0.5;entryDx=0;entryDy=0;fontSize=12;startSize=8;endSize=8;exitX=1;exitY=0.5;exitDx=0;exitDy=0;" edge="1" parent="1" source="HpqlJmidfFPWV4sKqH12-6" target="HpqlJmidfFPWV4sKqH12-7">
          <mxGeometry relative="1" as="geometry">
            <mxPoint x="644" y="150" as="sourcePoint" />
          </mxGeometry>
        </mxCell>
        <mxCell id="HpqlJmidfFPWV4sKqH12-6" value="Виведення результату" style="rounded=1;whiteSpace=wrap;html=1;" vertex="1" parent="1">
          <mxGeometry x="539" y="149" width="78" height="30" as="geometry" />
        </mxCell>
        <mxCell id="HpqlJmidfFPWV4sKqH12-7" value="End" style="rounded=1;whiteSpace=wrap;html=1;" vertex="1" parent="1">
          <mxGeometry x="654" y="153.5" width="55" height="21" as="geometry" />
        </mxCell>
        <mxCell id="HpqlJmidfFPWV4sKqH12-8" style="edgeStyle=elbowEdgeStyle;curved=1;html=1;entryX=0;entryY=0.5;entryDx=0;entryDy=0;exitX=1;exitY=0.5;exitDx=0;exitDy=0;" edge="1" parent="1" source="HpqlJmidfFPWV4sKqH12-1" target="HpqlJmidfFPWV4sKqH12-2">
          <mxGeometry relative="1" as="geometry">
            <mxPoint x="100" y="55" as="sourcePoint" />
            <mxPoint x="113" y="55" as="targetPoint" />
          </mxGeometry>
        </mxCell>
        <mxCell id="HpqlJmidfFPWV4sKqH12-9" style="edgeStyle=elbowEdgeStyle;curved=1;html=1;entryX=0;entryY=0.5;entryDx=0;entryDy=0;exitX=1;exitY=0.5;exitDx=0;exitDy=0;" edge="1" parent="1" source="HpqlJmidfFPWV4sKqH12-2" target="HpqlJmidfFPWV4sKqH12-3">
          <mxGeometry relative="1" as="geometry">
            <mxPoint x="200" y="55" as="sourcePoint" />
            <mxPoint x="240" y="55" as="targetPoint" />
          </mxGeometry>
        </mxCell>
        <mxCell id="HpqlJmidfFPWV4sKqH12-10" style="edgeStyle=elbowEdgeStyle;curved=1;html=1;exitX=1;exitY=0.5;exitDx=0;exitDy=0;entryX=0;entryY=0.5;entryDx=0;entryDy=0;" edge="1" parent="1" source="HpqlJmidfFPWV4sKqH12-3" target="HpqlJmidfFPWV4sKqH12-4">
          <mxGeometry relative="1" as="geometry">
            <mxPoint x="300" y="55" as="sourcePoint" />
            <mxPoint x="295" y="50" as="targetPoint" />
          </mxGeometry>
        </mxCell>
        <mxCell id="HpqlJmidfFPWV4sKqH12-11" style="edgeStyle=elbowEdgeStyle;curved=1;html=1;exitX=1;exitY=0.5;exitDx=0;exitDy=0;entryX=0;entryY=0.5;entryDx=0;entryDy=0;" edge="1" parent="1" source="HpqlJmidfFPWV4sKqH12-4" target="HpqlJmidfFPWV4sKqH12-5">
          <mxGeometry relative="1" as="geometry">
            <mxPoint x="440" y="55" as="sourcePoint" />
            <mxPoint x="436" y="128" as="targetPoint" />
            <Array as="points">
              <mxPoint x="419" y="88" />
            </Array>
          </mxGeometry>
        </mxCell>
        <mxCell id="HpqlJmidfFPWV4sKqH12-12" style="edgeStyle=elbowEdgeStyle;curved=1;html=1;entryX=0;entryY=0.5;entryDx=0;entryDy=0;exitX=1;exitY=0.5;exitDx=0;exitDy=0;" edge="1" parent="1" source="HpqlJmidfFPWV4sKqH12-5" target="HpqlJmidfFPWV4sKqH12-6">
          <mxGeometry relative="1" as="geometry">
            <mxPoint x="580" y="55" as="sourcePoint" />
            <mxPoint x="620" y="55" as="targetPoint" />
          </mxGeometry>
        </mxCell>
      </root>
    </mxGraphModel>
  </diagram>
</mxfile>
